<svg width="18" height="19" viewBox="0 0 18 19" fill="none" xmlns="http://www.w3.org/2000/svg">
<path d="M10.1777 16.148L9.39727 16.9285C9.0668 17.259 8.53243 17.259 8.20547 16.9285L1.3711 10.0976C1.04063 9.76718 1.04063 9.2328 1.3711 8.90585L8.20547 2.07148C8.53594 1.74101 9.07032 1.74101 9.39727 2.07148L10.1777 2.85194C10.5117 3.18593 10.5047 3.73085 10.1637 4.0578L5.92735 8.09374H16.0313C16.4988 8.09374 16.875 8.46991 16.875 8.93749V10.0625C16.875 10.5301 16.4988 10.9062 16.0313 10.9062H5.92735L10.1637 14.9422C10.5082 15.2691 10.5152 15.8141 10.1777 16.148Z" fill="#3365E3"/>
</svg>
