<svg width="11" height="12" viewBox="0 0 11 12" fill="none" xmlns="http://www.w3.org/2000/svg">
<g clip-path="url(#clip0_206_1207)">
<path opacity="0.4" d="M2.28773 4.875H8.21227C8.02594 6.35297 6.77859 7.5 5.25 7.5C3.72141 7.5 2.47406 6.35297 2.28773 4.875Z" fill="white"/>
<path d="M7.35 8.25H6.95859C6.42286 8.49702 5.83994 8.62494 5.25 8.62494C4.66006 8.62494 4.07714 8.49702 3.54141 8.25H3.15C2.73634 8.25 2.32672 8.33148 1.94455 8.48978C1.56237 8.64808 1.21512 8.88011 0.922614 9.17261C0.331874 9.76335 0 10.5646 0 11.4C0 11.5591 0.0632141 11.7117 0.175736 11.8243C0.288258 11.9368 0.44087 12 0.6 12H9.9C10.0591 12 10.2117 11.9368 10.3243 11.8243C10.4368 11.7117 10.5 11.5591 10.5 11.4C10.5 10.5646 10.1681 9.76335 9.57739 9.17261C8.98665 8.58187 8.18543 8.25 7.35 8.25ZM2.0625 4.125H8.4375C8.48723 4.125 8.53492 4.10525 8.57008 4.07008C8.60525 4.03492 8.625 3.98723 8.625 3.9375V3.1875C8.625 3.13777 8.60525 3.09008 8.57008 3.05492C8.53492 3.01975 8.48723 3 8.4375 3H8.25C8.25016 2.48388 8.09817 1.97917 7.81304 1.54897C7.5279 1.11877 7.12228 0.782166 6.64688 0.58125L6 1.875V0.375C6 0.275544 5.96049 0.180161 5.89016 0.109835C5.81984 0.0395088 5.72446 0 5.625 0L4.875 0C4.77554 0 4.68016 0.0395088 4.60984 0.109835C4.53951 0.180161 4.5 0.275544 4.5 0.375V1.875L3.85312 0.58125C3.37772 0.782166 2.9721 1.11877 2.68696 1.54897C2.40183 1.97917 2.24984 2.48388 2.25 3H2.0625C2.01277 3 1.96508 3.01975 1.92992 3.05492C1.89475 3.09008 1.875 3.13777 1.875 3.1875V3.9375C1.875 3.98723 1.89475 4.03492 1.92992 4.07008C1.96508 4.10525 2.01277 4.125 2.0625 4.125Z" fill="white"/>
</g>
<defs>
<clipPath id="clip0_206_1207">
<rect width="10.5" height="12" fill="white"/>
</clipPath>
</defs>
</svg>
