<svg width="16" height="15" viewBox="0 0 16 15" fill="none" xmlns="http://www.w3.org/2000/svg">
<g clip-path="url(#clip0_206_1301)">
<path opacity="0.4" d="M7.55556 12.2202C7.55734 12.695 7.38971 13.1549 7.0828 13.5171C6.77589 13.8794 6.34983 14.1203 5.8812 14.1965C5.41258 14.2728 4.93212 14.1794 4.5262 13.9331C4.12027 13.6868 3.8155 13.3039 3.66667 12.853C3.37967 12.9069 3.08426 12.8964 2.80184 12.8221C2.51942 12.7478 2.25704 12.6117 2.03371 12.4235C1.81038 12.2354 1.63168 11.9999 1.51055 11.7342C1.38942 11.4685 1.32888 11.1792 1.33333 10.8872C1.33366 10.7556 1.34687 10.6245 1.37278 10.4955C0.966847 10.3276 0.619791 10.0431 0.375455 9.67805C0.131119 9.31298 0.000465288 8.88368 0 8.44439C0 7.6205 0.453889 6.90939 1.12056 6.52578C0.969918 6.22441 0.890651 5.89242 0.888889 5.5555C0.889019 5.11469 1.02024 4.68388 1.26588 4.31785C1.51151 3.95183 1.86046 3.66712 2.26833 3.49994C2.20789 3.23995 2.20715 2.96964 2.26616 2.70933C2.32518 2.44901 2.44241 2.20544 2.60906 1.99693C2.77571 1.78842 2.98744 1.62038 3.22835 1.50544C3.46926 1.39049 3.73308 1.33163 4 1.33328C4.02083 1.33328 4.04028 1.33883 4.06111 1.33939C4.16703 0.919487 4.42287 0.552823 4.78041 0.308495C5.13796 0.0641661 5.57252 -0.0409537 6.00221 0.0129451C6.4319 0.0668438 6.82703 0.276039 7.11316 0.601108C7.39928 0.926176 7.55663 1.34467 7.55556 1.77772V12.2202ZM16 8.44439C16 7.6205 15.5461 6.90939 14.8794 6.52578C15.0301 6.22441 15.1093 5.89242 15.1111 5.5555C15.111 5.11469 14.9798 4.68388 14.7341 4.31785C14.4885 3.95183 14.1395 3.66712 13.7317 3.49994C13.7921 3.23995 13.7928 2.96964 13.7338 2.70933C13.6748 2.44901 13.5576 2.20544 13.3909 1.99693C13.2243 1.78842 13.0126 1.62038 12.7717 1.50544C12.5307 1.39049 12.2669 1.33163 12 1.33328C11.9792 1.33328 11.9597 1.33883 11.9389 1.33939C11.833 0.919487 11.5771 0.552823 11.2196 0.308495C10.862 0.0641661 10.4275 -0.0409537 9.99779 0.0129451C9.5681 0.0668438 9.17297 0.276039 8.88684 0.601108C8.60072 0.926176 8.44337 1.34467 8.44444 1.77772V12.2194C8.44266 12.6942 8.61029 13.154 8.9172 13.5163C9.22411 13.8785 9.65017 14.1194 10.1188 14.1957C10.5874 14.272 11.0679 14.1785 11.4738 13.9323C11.8797 13.686 12.1845 13.303 12.3333 12.8522C12.6527 12.9077 12.9807 12.8846 13.2891 12.7847C13.5974 12.6848 13.8767 12.5112 14.1028 12.279C14.3289 12.0467 14.4949 11.7628 14.5864 11.4519C14.6779 11.1409 14.6922 10.8124 14.6281 10.4947C15.0337 10.3267 15.3805 10.0423 15.6247 9.67739C15.8688 9.31249 15.9994 8.88344 16 8.44439Z" fill="#E9A13B"/>
<path d="M8.44445 12.2203C8.44445 12.2793 8.42103 12.3358 8.37936 12.3775C8.33768 12.4191 8.28116 12.4426 8.22222 12.4426H7.77778C7.71884 12.4426 7.66232 12.4191 7.62064 12.3775C7.57897 12.3358 7.55556 12.2793 7.55556 12.2203V2.00005C7.55556 1.94112 7.57897 1.88459 7.62064 1.84292C7.66232 1.80124 7.71884 1.77783 7.77778 1.77783H8.22222C8.28116 1.77783 8.33768 1.80124 8.37936 1.84292C8.42103 1.88459 8.44445 1.94112 8.44445 2.00005V12.2203Z" fill="#E9A13B"/>
</g>
<defs>
<clipPath id="clip0_206_1301">
<rect width="16" height="14.2222" fill="white"/>
</clipPath>
</defs>
</svg>
