<svg width="21" height="24" viewBox="0 0 21 24" fill="none" xmlns="http://www.w3.org/2000/svg">
<path d="M2 9.75V19.3125C2 19.7601 2.1919 20.1893 2.53348 20.5057C2.87507 20.8222 3.33836 21 3.82143 21H17.1786C17.6616 21 18.1249 20.8222 18.4665 20.5057C18.8081 20.1893 19 19.7601 19 19.3125V9.75H2ZM16.5714 14.8125C16.5714 14.9617 16.5075 15.1048 16.3936 15.2102C16.2797 15.3157 16.1253 15.375 15.9643 15.375H5.03571C4.87469 15.375 4.72026 15.3157 4.6064 15.2102C4.49254 15.1048 4.42857 14.9617 4.42857 14.8125V12.5625C4.42857 12.4133 4.49254 12.2702 4.6064 12.1648C4.72026 12.0593 4.87469 12 5.03571 12H15.9643C16.1253 12 16.2797 12.0593 16.3936 12.1648C16.5075 12.2702 16.5714 12.4133 16.5714 12.5625V14.8125ZM13.5357 7.5H14.75C14.911 7.5 15.0655 7.44074 15.1793 7.33525C15.2932 7.22976 15.3571 7.08668 15.3571 6.9375V3.5625C15.3571 3.41332 15.2932 3.27024 15.1793 3.16475C15.0655 3.05926 14.911 3 14.75 3H13.5357C13.3747 3 13.2203 3.05926 13.1064 3.16475C12.9925 3.27024 12.9286 3.41332 12.9286 3.5625V6.9375C12.9286 7.08668 12.9925 7.22976 13.1064 7.33525C13.2203 7.44074 13.3747 7.5 13.5357 7.5ZM6.25 7.5H7.46429C7.62531 7.5 7.77974 7.44074 7.8936 7.33525C8.00746 7.22976 8.07143 7.08668 8.07143 6.9375V3.5625C8.07143 3.41332 8.00746 3.27024 7.8936 3.16475C7.77974 3.05926 7.62531 3 7.46429 3H6.25C6.08898 3 5.93455 3.05926 5.82069 3.16475C5.70682 3.27024 5.64286 3.41332 5.64286 3.5625V6.9375C5.64286 7.08668 5.70682 7.22976 5.82069 7.33525C5.93455 7.44074 6.08898 7.5 6.25 7.5Z" fill="#F5D465"/>
<path d="M19 6.875V10H2V6.875C2 6.37772 2.1919 5.90081 2.53348 5.54917C2.87507 5.19754 3.33836 5 3.82143 5H5.64286V6.875C5.64286 7.04076 5.70682 7.19973 5.82069 7.31694C5.93455 7.43415 6.08898 7.5 6.25 7.5H7.46429C7.62531 7.5 7.77974 7.43415 7.8936 7.31694C8.00746 7.19973 8.07143 7.04076 8.07143 6.875V5H12.9286V6.875C12.9286 7.04076 12.9925 7.19973 13.1064 7.31694C13.2203 7.43415 13.3747 7.5 13.5357 7.5H14.75C14.911 7.5 15.0655 7.43415 15.1793 7.31694C15.2932 7.19973 15.3571 7.04076 15.3571 6.875V5H17.1786C17.6616 5 18.1249 5.19754 18.4665 5.54917C18.8081 5.90081 19 6.37772 19 6.875Z" fill="#E9A13B"/>
</svg>
