<svg width="60" height="60" viewBox="0 0 60 60" fill="none" xmlns="http://www.w3.org/2000/svg">
<g clip-path="url(#clip0_398_134)">
<path d="M53.7448 29.9902L59.1337 24.7162C60.7401 23.1955 59.991 20.4929 57.884 19.989L50.5422 18.1152L52.6119 10.8478C53.1967 8.7574 51.2256 6.78572 49.136 7.37072L41.871 9.44107L39.9979 2.09681C39.5022 0.0227108 36.7694 -0.735844 35.2723 0.846656L30.0001 6.27736L24.7279 0.846773C23.2478 -0.717797 20.5037 -0.000961229 20.0023 2.09693L18.1292 9.44119L10.8642 7.37084C8.77389 6.7856 6.8035 8.75798 7.38826 10.8479L9.45791 18.1153L2.11611 19.9891C0.00814298 20.4931 -0.739396 23.1962 0.866307 24.7162L6.25517 29.9902L0.866307 35.2642C-0.740099 36.7849 0.00896351 39.4875 2.11599 39.9914L9.45779 41.8652L7.38814 49.1326C6.80326 51.223 8.77435 53.1947 10.864 52.6097L18.129 50.5393L20.0021 57.8836C20.5223 60.0603 23.2477 60.6982 24.7277 59.1337L30.0001 53.743L35.2722 59.1337C36.7371 60.7144 39.4894 60.011 39.9978 57.8836L41.8709 50.5393L49.1358 52.6097C51.226 53.1949 53.1965 51.2225 52.6117 49.1326L50.5421 41.8652L57.8839 39.9914C59.9917 39.4872 60.7393 36.7843 59.1336 35.2642L53.7448 29.9902V29.9902Z" fill="#D3E3FF"/>
</g>
<defs>
<clipPath id="clip0_398_134">
<rect width="60" height="60" fill="white"/>
</clipPath>
</defs>
</svg>
