<svg width="12" height="11" viewBox="0 0 12 11" fill="none" xmlns="http://www.w3.org/2000/svg">
<g clip-path="url(#clip0_206_1210)">
<path opacity="0.4" d="M10.6379 1.92976L8.6521 3.51893C8.66056 3.56774 8.66543 3.61711 8.66668 3.66664C8.66668 3.93185 8.56132 4.18621 8.37379 4.37374C8.18625 4.56128 7.93189 4.66664 7.66668 4.66664C7.40146 4.66664 7.14711 4.56128 6.95957 4.37374C6.77203 4.18621 6.66668 3.93185 6.66668 3.66664C6.66789 3.61703 6.67283 3.56758 6.68147 3.51872L4.69542 1.92976C4.49909 2.01024 4.28131 2.02192 4.0775 1.96289L1.96291 4.07747C2.01591 4.27902 2.00447 4.49211 1.9302 4.68683C1.85594 4.88155 1.72257 5.04813 1.54882 5.16321C1.37507 5.27828 1.16965 5.33607 0.961391 5.32847C0.753127 5.32087 0.552469 5.24825 0.387571 5.12082C0.222674 4.99338 0.101811 4.81751 0.0419413 4.6179C-0.0179283 4.41828 -0.0138002 4.20493 0.0537464 4.00778C0.121293 3.81062 0.248868 3.63957 0.418572 3.5186C0.588277 3.39764 0.791593 3.33284 0.999995 3.3333C1.08652 3.33451 1.17252 3.34698 1.25583 3.37039L3.37042 1.2558C3.34701 1.17249 3.33454 1.08649 3.33333 0.999969C3.33333 0.734753 3.43869 0.480399 3.62623 0.292862C3.81376 0.105326 4.06812 -3.10168e-05 4.33334 -3.10168e-05C4.59855 -3.10168e-05 4.85291 0.105326 5.04045 0.292862C5.22798 0.480399 5.33334 0.734753 5.33334 0.999969C5.33213 1.04958 5.32718 1.09902 5.31855 1.14789L7.30438 2.73664C7.5367 2.64302 7.79624 2.64302 8.02855 2.73664L10.0148 1.14768C10.0063 1.09887 10.0013 1.0495 10 0.999969C9.99841 0.784249 10.0661 0.57371 10.1931 0.399333C10.3201 0.224956 10.4997 0.0959493 10.7055 0.0312963C10.9114 -0.0333567 11.1325 -0.030242 11.3364 0.0401822C11.5403 0.110606 11.7162 0.244621 11.8383 0.422506C11.9603 0.600391 12.022 0.812752 12.0144 1.02834C12.0067 1.24393 11.93 1.45136 11.7956 1.62012C11.6612 1.78887 11.4762 1.91003 11.2678 1.96577C11.0594 2.02151 10.8386 2.00889 10.6379 1.92976Z" fill="white"/>
<path d="M8.33333 6.66667H7C6.91159 6.66667 6.82681 6.70179 6.7643 6.7643C6.70179 6.82681 6.66667 6.91159 6.66667 7V10.3333C6.66667 10.4217 6.70179 10.5065 6.7643 10.569C6.82681 10.6315 6.91159 10.6667 7 10.6667H8.33333C8.42174 10.6667 8.50652 10.6315 8.56904 10.569C8.63155 10.5065 8.66667 10.4217 8.66667 10.3333V7C8.66667 6.91159 8.63155 6.82681 8.56904 6.7643C8.50652 6.70179 8.42174 6.66667 8.33333 6.66667ZM11.6667 4H10.3333C10.2449 4 10.1601 4.03512 10.0976 4.09763C10.0351 4.16014 10 4.24493 10 4.33333V10.3333C10 10.4217 10.0351 10.5065 10.0976 10.569C10.1601 10.6315 10.2449 10.6667 10.3333 10.6667H11.6667C11.7551 10.6667 11.8399 10.6315 11.9024 10.569C11.9649 10.5065 12 10.4217 12 10.3333V4.33333C12 4.24493 11.9649 4.16014 11.9024 4.09763C11.8399 4.03512 11.7551 4 11.6667 4ZM5 4H3.66667C3.57826 4 3.49348 4.03512 3.43096 4.09763C3.36845 4.16014 3.33333 4.24493 3.33333 4.33333V10.3333C3.33333 10.4217 3.36845 10.5065 3.43096 10.569C3.49348 10.6315 3.57826 10.6667 3.66667 10.6667H5C5.08841 10.6667 5.17319 10.6315 5.2357 10.569C5.29821 10.5065 5.33333 10.4217 5.33333 10.3333V4.33333C5.33333 4.24493 5.29821 4.16014 5.2357 4.09763C5.17319 4.03512 5.08841 4 5 4ZM1.66667 7.33333H0.333333C0.244928 7.33333 0.160143 7.36845 0.0976311 7.43096C0.035119 7.49348 0 7.57826 0 7.66667L0 10.3333C0 10.4217 0.035119 10.5065 0.0976311 10.569C0.160143 10.6315 0.244928 10.6667 0.333333 10.6667H1.66667C1.75507 10.6667 1.83986 10.6315 1.90237 10.569C1.96488 10.5065 2 10.4217 2 10.3333V7.66667C2 7.57826 1.96488 7.49348 1.90237 7.43096C1.83986 7.36845 1.75507 7.33333 1.66667 7.33333Z" fill="white"/>
</g>
<defs>
<clipPath id="clip0_206_1210">
<rect width="12" height="10.6667" fill="white"/>
</clipPath>
</defs>
</svg>
