<svg width="11" height="12" viewBox="0 0 11 12" fill="none" xmlns="http://www.w3.org/2000/svg">
<g clip-path="url(#clip0_206_1219)">
<path opacity="0.4" d="M10.2936 3.00005C9.62968 1.81506 7.78132 2.03973 7.51321 2.06873C7.71657 2.54447 7.87474 3.03829 7.98562 3.54365C8.84564 3.51623 9.02746 3.74062 9.03272 3.75001C9.11174 3.89095 8.99041 4.31525 8.64318 4.86045C8.4833 4.70866 8.31783 4.55819 8.14083 4.41129C8.28736 5.4654 8.28736 6.53471 8.14083 7.58881C8.31783 7.44192 8.48339 7.29145 8.64318 7.13966C8.99041 7.68481 9.11174 8.10915 9.03272 8.25005C9.02746 8.25944 8.84499 8.48398 7.98562 8.45646C7.87474 8.96182 7.71657 9.45563 7.51321 9.93137C7.77427 9.95962 9.62845 10.187 10.2936 9.00005C10.7332 8.21568 10.4486 7.11096 9.6487 6.00001C10.4486 4.88906 10.7332 3.78443 10.2936 3.00005ZM5.24999 4.3191C5.75657 4.56589 6.07274 4.72808 6.71134 5.18684C6.57802 3.46678 6.07341 2.52602 6.00745 2.39562C5.75856 2.475 5.50519 2.57072 5.24999 2.67582C4.99478 2.57067 4.74141 2.47495 4.49253 2.39558C4.00279 2.23659 3.49834 2.12708 2.98676 2.06869C2.72623 2.04049 0.871487 1.81312 0.206347 3.00005C-0.233186 3.78443 0.0514168 4.88906 0.851277 6.00001C0.0514168 7.11096 -0.233186 8.21568 0.206347 9.00005C0.870308 10.185 2.71866 9.96037 2.98676 9.93137C3.49834 9.87295 4.00278 9.76344 4.49253 9.60449C4.74141 9.52511 4.99478 9.42939 5.24999 9.32429C5.50528 9.42944 5.75856 9.52511 6.00745 9.60449C6.07319 9.47448 6.578 8.53365 6.71134 6.81327C6.07226 7.27237 5.75125 7.43686 5.24999 7.68096C4.74789 7.43646 4.42711 7.27194 3.78864 6.81327C3.4437 6.56632 3.11724 6.29453 2.81186 6.00005C3.11724 5.70558 3.4437 5.43379 3.78864 5.18684C4.4266 4.72855 4.74783 4.56364 5.24999 4.3191ZM3.38765 8.34211C3.10049 8.4059 2.80825 8.44416 2.51435 8.45646C1.65507 8.48398 1.47252 8.25947 1.46725 8.2501C1.38823 8.10916 1.50956 7.68481 1.8568 7.13966C2.01658 7.29145 2.18214 7.44192 2.35915 7.58882C2.68732 7.85935 3.03071 8.11086 3.38765 8.34211ZM2.35915 4.41129C2.18214 4.55819 2.01658 4.70866 1.8568 4.86045C1.50956 4.3153 1.38823 3.89095 1.46725 3.75005C1.47251 3.74067 1.65482 3.51614 2.51444 3.5436C2.80831 3.5559 3.10052 3.59416 3.38765 3.65795C3.03072 3.88924 2.68733 4.14076 2.35915 4.41129Z" fill="white"/>
<path d="M2.35915 7.58876C2.40017 7.88791 2.45163 8.17781 2.51436 8.45641C2.80826 8.44411 3.1005 8.40584 3.38766 8.34206C3.03072 8.1108 2.68732 7.85929 2.35915 7.58876ZM2.81187 6C3.11725 6.29447 3.44371 6.56627 3.78865 6.81322C3.73532 6.12404 3.73802 5.84104 3.78865 5.18678C3.44371 5.43373 3.11725 5.70553 2.81187 6ZM2.51445 3.54355C2.45173 3.82214 2.40017 4.11205 2.35915 4.41124C2.68733 4.14071 3.03073 3.88918 3.38766 3.6579C3.10053 3.59411 2.80832 3.55584 2.51445 3.54355ZM8.14085 4.41124C8.09984 4.11205 8.04837 3.82214 7.98565 3.54359C7.87477 3.03823 7.7166 2.54442 7.51324 2.06868C6.9631 0.803467 6.15425 0 5.25 0C4.34576 0 3.53691 0.803467 2.98677 2.06863C3.49835 2.12702 4.0028 2.23653 4.49254 2.39552C4.78473 1.81783 5.08792 1.5 5.25 1.5C5.41209 1.5 5.71537 1.81783 6.00747 2.39557C6.0732 2.52552 6.57805 3.4666 6.71136 5.18678C6.76469 5.87596 6.76199 6.15896 6.71136 6.81322C6.57805 8.53328 6.07346 9.47395 6.00747 9.60443C5.71537 10.1821 5.41209 10.5 5.25 10.5C5.08792 10.5 4.78473 10.1822 4.49254 9.60443C4.00279 9.76339 3.49835 9.8729 2.98677 9.93132C3.53691 11.1965 4.34576 12 5.25 12C6.15425 12 6.9631 11.1965 7.51324 9.93132C7.71659 9.45558 7.87476 8.96177 7.98565 8.45641C8.04837 8.17781 8.09984 7.88791 8.14085 7.58876C8.2874 6.53466 8.2874 5.46534 8.14085 4.41124ZM6.00033 6C6.00039 5.85159 5.95644 5.70649 5.87403 5.58306C5.79162 5.45963 5.67446 5.36341 5.53736 5.30657C5.40026 5.24973 5.24939 5.23482 5.10382 5.26374C4.95825 5.29265 4.82453 5.36409 4.71956 5.46901C4.61459 5.57393 4.5431 5.70762 4.51412 5.85318C4.48515 5.99874 4.49999 6.14962 4.55677 6.28674C4.61355 6.42386 4.70972 6.54107 4.83311 6.62353C4.95651 6.70599 5.10159 6.75 5.25 6.75C5.44884 6.74966 5.63944 6.67054 5.78007 6.52997C5.9207 6.3894 5.9999 6.19884 6.00033 6Z" fill="white"/>
</g>
<defs>
<clipPath id="clip0_206_1219">
<rect width="10.5" height="12" fill="white"/>
</clipPath>
</defs>
</svg>
