<svg width="15" height="12" viewBox="0 0 15 12" fill="none" xmlns="http://www.w3.org/2000/svg">
<path opacity="0.4" d="M14.9627 9.07038C14.9513 9.00278 14.9164 8.94141 14.864 8.8972C14.8116 8.85298 14.7453 8.8288 14.6767 8.82897H14.29C14.2065 8.59375 14.0801 8.37603 13.9174 8.18678L14.1093 7.85163C14.1433 7.79234 14.1553 7.72299 14.1434 7.65572C14.1314 7.58844 14.0961 7.52753 14.0437 7.48366C13.8193 7.29698 13.5649 7.14959 13.2913 7.04772C13.2269 7.0233 13.1559 7.02262 13.0911 7.04581C13.0262 7.06901 12.9717 7.11455 12.9374 7.17428L12.7452 7.50944C12.4996 7.46491 12.2479 7.46491 12.0023 7.50944L11.8101 7.17428C11.7758 7.11455 11.7213 7.06901 11.6565 7.04581C11.5916 7.02262 11.5206 7.0233 11.4562 7.04772C11.1829 7.15013 10.9286 7.29747 10.7038 7.48366C10.651 7.5272 10.6153 7.58814 10.6033 7.65556C10.5913 7.72299 10.6037 7.79249 10.6382 7.85163L10.8304 8.18678C10.6676 8.37603 10.5413 8.59375 10.4578 8.82897H10.071C10.0023 8.82932 9.93585 8.85398 9.88352 8.89859C9.83119 8.9432 9.79633 9.00488 9.7851 9.07272C9.73704 9.36057 9.73704 9.6544 9.7851 9.94225C9.79643 10.0098 9.83139 10.0712 9.88376 10.1154C9.93613 10.1596 10.0025 10.1838 10.071 10.1837H10.4578C10.5413 10.4189 10.6676 10.6366 10.8304 10.8258L10.6382 11.161C10.6042 11.2203 10.5922 11.2896 10.6042 11.3569C10.6162 11.4242 10.6515 11.4851 10.7038 11.529C10.9283 11.7156 11.1826 11.863 11.4562 11.9649C11.5206 11.9893 11.5916 11.99 11.6565 11.9668C11.7213 11.9436 11.7758 11.8981 11.8101 11.8383L12.0023 11.5032C12.2479 11.5477 12.4996 11.5477 12.7452 11.5032L12.9374 11.8383C12.9717 11.8981 13.0262 11.9436 13.0911 11.9668C13.1559 11.99 13.2269 11.9893 13.2913 11.9649C13.5646 11.8625 13.8189 11.7152 14.0437 11.529C14.0965 11.4854 14.1322 11.4245 14.1442 11.3571C14.1562 11.2896 14.1439 11.2201 14.1093 11.161L13.9171 10.8258C14.0799 10.6366 14.2062 10.4189 14.2898 10.1837H14.6765C14.7453 10.1833 14.8117 10.1586 14.864 10.114C14.9163 10.0694 14.9512 10.0077 14.9624 9.93991C15.0106 9.65207 15.0106 9.35824 14.9627 9.07038ZM11.7564 10.1227C11.0627 9.22038 12.0916 8.19147 12.9939 8.88522C13.6874 9.78733 12.6588 10.8162 11.7564 10.1225V10.1227ZM14.9627 2.06491C14.9513 1.99731 14.9164 1.93594 14.864 1.89173C14.8116 1.84751 14.7453 1.82333 14.6767 1.8235H14.29C14.2065 1.58828 14.0801 1.37056 13.9174 1.18131L14.1095 0.846156C14.1435 0.786874 14.1556 0.717523 14.1436 0.650248C14.1316 0.582973 14.0963 0.522064 14.0439 0.478188C13.8195 0.291514 13.5651 0.144125 13.2916 0.0422502C13.2272 0.0177428 13.1561 0.0169991 13.0912 0.0401526C13.0263 0.063306 12.9718 0.10884 12.9374 0.168578L12.7452 0.503735C12.4996 0.459203 12.2479 0.459203 12.0023 0.503735L11.8101 0.168578C11.7758 0.108851 11.7213 0.0633053 11.6565 0.0401109C11.5916 0.0169165 11.5206 0.0175918 11.4562 0.0420158C11.1829 0.144426 10.9286 0.291766 10.7038 0.477953C10.651 0.521495 10.6153 0.582436 10.6033 0.649861C10.5913 0.717286 10.6037 0.786789 10.6382 0.845922L10.8304 1.18108C10.6676 1.37032 10.5413 1.58805 10.4578 1.82327H10.071C10.0023 1.82362 9.93585 1.84828 9.88352 1.89289C9.83119 1.93749 9.79633 1.99918 9.7851 2.06702C9.73704 2.35487 9.73704 2.64869 9.7851 2.93655C9.79643 3.00414 9.83139 3.06551 9.88376 3.10973C9.93613 3.15394 10.0025 3.17812 10.071 3.17795H10.4578C10.5413 3.41317 10.6676 3.6309 10.8304 3.82014L10.6382 4.1553C10.6042 4.21458 10.5922 4.28393 10.6042 4.35121C10.6162 4.41848 10.6515 4.47939 10.7038 4.52327C10.9283 4.70994 11.1826 4.85733 11.4562 4.9592C11.5206 4.98363 11.5916 4.9843 11.6565 4.96111C11.7213 4.93791 11.7758 4.89237 11.8101 4.83264L12.0023 4.49748C12.2479 4.54202 12.4996 4.54202 12.7452 4.49748L12.9374 4.83264C12.9717 4.89237 13.0262 4.93791 13.0911 4.96111C13.1559 4.9843 13.2269 4.98363 13.2913 4.9592C13.5646 4.85679 13.8189 4.70945 14.0437 4.52327C14.0965 4.47972 14.1322 4.41878 14.1442 4.35136C14.1562 4.28393 14.1439 4.21443 14.1093 4.1553L13.9171 3.82014C14.0799 3.6309 14.2062 3.41317 14.2898 3.17795H14.6765C14.7453 3.1776 14.8117 3.15294 14.864 3.10833C14.9163 3.06373 14.9512 3.00204 14.9624 2.9342C15.0106 2.64636 15.0106 2.35254 14.9627 2.06467V2.06491ZM11.7564 3.11959C11.0627 2.21725 12.0916 1.186 12.9939 1.88209C13.6874 2.7842 12.6588 3.81311 11.7564 3.11936V3.11959Z" fill="white"/>
<path d="M9.84374 7.12005L9.05413 6.72653C9.14554 6.23465 9.14554 5.73013 9.05413 5.23825L9.84397 4.8445C10.0807 4.70622 10.1721 4.41794 10.0783 4.16247C9.86975 3.59528 9.47132 3.07497 9.09163 2.62028C9.00674 2.51941 8.88902 2.45167 8.75915 2.42896C8.62929 2.40624 8.49557 2.43 8.38147 2.49606L7.69944 2.88981C7.31976 2.56531 6.88358 2.31345 6.41272 2.14685V1.35935C6.41237 1.22667 6.36513 1.0984 6.27935 0.997185C6.19358 0.89597 6.07479 0.828332 5.94397 0.80622C5.35427 0.707367 4.75216 0.70816 4.16272 0.808564C4.03362 0.831748 3.91679 0.899653 3.83275 1.00037C3.74871 1.10108 3.70281 1.22817 3.70311 1.35935V2.14919C3.23183 2.31487 2.79549 2.56682 2.4164 2.89216L1.73436 2.49817C1.6203 2.43202 1.48655 2.4082 1.35666 2.43092C1.22677 2.45364 1.10905 2.52144 1.02421 2.62239C0.644521 3.07708 0.24374 3.59739 0.0351465 4.16458C-0.0110036 4.28866 -0.0115964 4.4251 0.0334737 4.54958C0.0785438 4.67406 0.166349 4.77849 0.28124 4.84427L1.06171 5.24036C0.970303 5.73146 0.970303 6.2352 1.06171 6.7263L0.28124 7.12005C0.166814 7.18689 0.079492 7.29179 0.0345148 7.41644C-0.0104625 7.54109 -0.0102389 7.67758 0.0351465 7.80208C0.24374 8.36692 0.644521 8.88724 1.02421 9.34192C1.1091 9.44279 1.22682 9.51053 1.35668 9.53325C1.48655 9.55597 1.62027 9.53221 1.73436 9.46614L2.4164 9.07474C2.79608 9.39924 3.23226 9.6511 3.70311 9.81771V10.6052C3.70347 10.7379 3.75071 10.8662 3.83648 10.9674C3.92226 11.0686 4.04105 11.1362 4.17186 11.1583C4.76055 11.2591 5.36209 11.2591 5.95077 11.1583C6.08044 11.135 6.19777 11.0669 6.2822 10.9657C6.36662 10.8646 6.41275 10.7369 6.41249 10.6052V9.81771C6.88378 9.65202 7.32011 9.40008 7.69921 9.07474L8.38124 9.46849C8.49531 9.53464 8.62905 9.55846 8.75894 9.53573C8.88884 9.51301 9.00656 9.44522 9.0914 9.34427C9.47108 8.88958 9.88124 8.36927 10.0898 7.80208C10.1358 7.67763 10.1364 7.54093 10.0913 7.41612C10.0463 7.29132 9.95861 7.18645 9.84374 7.12005ZM6.29765 7.22083C4.49296 8.60833 2.4328 6.54817 3.8203 4.74349C5.62499 3.35599 7.68538 5.41614 6.29788 7.22083H6.29765Z" fill="white"/>
</svg>
