<svg width="15" height="12" viewBox="0 0 15 12" fill="none" xmlns="http://www.w3.org/2000/svg">
<g clip-path="url(#clip0_206_1198)">
<path opacity="0.4" d="M12.375 0H2.625C2.3269 0.000865683 2.04125 0.11967 1.83046 0.330461C1.61967 0.541252 1.50087 0.826898 1.5 1.125V9H13.5V1.125C13.4991 0.826898 13.3803 0.541252 13.1695 0.330461C12.9587 0.11967 12.6731 0.000865683 12.375 0V0ZM12 7.5H3V1.5H12V7.5Z" fill="white"/>
<path d="M14.625 9.75H8.94234C8.925 10.2143 8.59758 10.5 8.175 10.5H6.75C6.31195 10.5 5.97656 10.0905 5.98195 9.75H0.375C0.275544 9.75 0.180161 9.78951 0.109835 9.85983C0.0395088 9.93016 0 10.0255 0 10.125L0 10.5C0.00117475 10.8975 0.159587 11.2783 0.440638 11.5594C0.721688 11.8404 1.10254 11.9988 1.5 12H13.5C13.8975 11.9988 14.2783 11.8404 14.5594 11.5594C14.8404 11.2783 14.9988 10.8975 15 10.5V10.125C15 10.0255 14.9605 9.93016 14.8902 9.85983C14.8198 9.78951 14.7245 9.75 14.625 9.75ZM12 1.5H3V7.5H12V1.5ZM6.77344 5.86734L6.50836 6.13242C6.47354 6.16725 6.43219 6.19488 6.38669 6.21373C6.34119 6.23258 6.29242 6.24229 6.24316 6.24229C6.19391 6.24229 6.14514 6.23258 6.09964 6.21373C6.05414 6.19488 6.01279 6.16725 5.97797 6.13242L4.61039 4.76508C4.57556 4.73025 4.54793 4.68891 4.52908 4.64341C4.51023 4.59791 4.50053 4.54914 4.50053 4.49988C4.50053 4.45063 4.51023 4.40186 4.52908 4.35636C4.54793 4.31085 4.57556 4.26951 4.61039 4.23469L5.97656 2.86734C6.01139 2.83251 6.05273 2.80488 6.09823 2.78603C6.14373 2.76718 6.1925 2.75748 6.24176 2.75748C6.29101 2.75748 6.33978 2.76718 6.38528 2.78603C6.43079 2.80488 6.47213 2.83251 6.50695 2.86734L6.77344 3.13242C6.80827 3.16724 6.8359 3.20859 6.85475 3.25409C6.8736 3.29959 6.8833 3.34836 6.8833 3.39762C6.8833 3.44687 6.8736 3.49564 6.85475 3.54114C6.8359 3.58665 6.80827 3.62799 6.77344 3.66281L5.93555 4.5L6.77344 5.33695C6.80827 5.37178 6.8359 5.41312 6.85475 5.45862C6.8736 5.50413 6.8833 5.5529 6.8833 5.60215C6.8833 5.6514 6.8736 5.70017 6.85475 5.74567C6.8359 5.79118 6.80827 5.83252 6.77344 5.86734ZM10.391 4.76578L9.02344 6.13266C8.98861 6.16749 8.94727 6.19512 8.90177 6.21397C8.85627 6.23282 8.8075 6.24252 8.75824 6.24252C8.70899 6.24252 8.66022 6.23282 8.61472 6.21397C8.56921 6.19512 8.52787 6.16749 8.49305 6.13266L8.22656 5.86758C8.19173 5.83276 8.1641 5.79141 8.14525 5.74591C8.1264 5.70041 8.1167 5.65164 8.1167 5.60238C8.1167 5.55313 8.1264 5.50436 8.14525 5.45886C8.1641 5.41335 8.19173 5.37201 8.22656 5.33719L9.06445 4.5L8.22656 3.66305C8.19173 3.62822 8.1641 3.58688 8.14525 3.54138C8.1264 3.49588 8.1167 3.4471 8.1167 3.39785C8.1167 3.3486 8.1264 3.29983 8.14525 3.25433C8.1641 3.20882 8.19173 3.16748 8.22656 3.13266L8.49164 2.86758C8.52646 2.83275 8.56781 2.80512 8.61331 2.78627C8.65881 2.76742 8.70758 2.75771 8.75684 2.75771C8.80609 2.75771 8.85486 2.76742 8.90036 2.78627C8.94586 2.80512 8.98721 2.83275 9.02203 2.86758L10.3894 4.23492C10.4243 4.26968 10.452 4.31098 10.4709 4.35645C10.4898 4.40192 10.4996 4.45067 10.4997 4.49992C10.4998 4.54918 10.4902 4.59796 10.4714 4.6435C10.4526 4.68904 10.4251 4.73043 10.3903 4.76531L10.391 4.76578Z" fill="white"/>
</g>
<defs>
<clipPath id="clip0_206_1198">
<rect width="15" height="12" fill="white"/>
</clipPath>
</defs>
</svg>
