<svg width="11" height="12" viewBox="0 0 11 12" fill="none" xmlns="http://www.w3.org/2000/svg">
<g clip-path="url(#clip0_206_1204)">
<path opacity="0.4" d="M8.24999 3C8.24999 2.40666 8.07404 1.82664 7.7444 1.33329C7.41475 0.839943 6.94622 0.455426 6.39804 0.228363C5.84986 0.00129984 5.24666 -0.0581102 4.66472 0.0576455C4.08277 0.173401 3.54822 0.459124 3.12867 0.878681C2.70911 1.29824 2.42339 1.83279 2.30763 2.41473C2.19188 2.99667 2.25129 3.59987 2.47835 4.14805C2.70541 4.69623 3.08993 5.16477 3.58328 5.49441C4.07662 5.82406 4.65664 6 5.24999 6C6.04564 6 6.8087 5.68393 7.37131 5.12132C7.93392 4.55871 8.24999 3.79565 8.24999 3ZM3.37499 8.68594V6.75H3.14999C2.97408 6.75006 2.79847 6.76472 2.62499 6.79383V8.68594C2.32286 8.77602 2.06326 8.97183 1.89364 9.23758C1.72402 9.50333 1.65572 9.82125 1.70124 10.1332C1.74675 10.4452 1.90304 10.7303 2.14151 10.9365C2.37999 11.1427 2.68472 11.2562 2.99999 11.2562C3.31525 11.2562 3.61999 11.1427 3.85846 10.9365C4.09694 10.7303 4.25322 10.4452 4.29874 10.1332C4.34425 9.82125 4.27596 9.50333 4.10634 9.23758C3.93672 8.97183 3.67711 8.77602 3.37499 8.68594ZM2.99999 10.5C2.88874 10.5 2.77998 10.467 2.68748 10.4052C2.59498 10.3434 2.52288 10.2555 2.48031 10.1528C2.43773 10.05 2.42659 9.93688 2.4483 9.82776C2.47 9.71865 2.52357 9.61842 2.60224 9.53975C2.68091 9.46109 2.78114 9.40751 2.89025 9.38581C2.99936 9.36411 3.11246 9.37525 3.21525 9.41782C3.31803 9.46039 3.40588 9.53249 3.46769 9.62499C3.5295 9.7175 3.56249 9.82625 3.56249 9.9375C3.56267 10.0114 3.54825 10.0847 3.52005 10.153C3.49185 10.2213 3.45042 10.2834 3.39815 10.3357C3.34588 10.3879 3.2838 10.4294 3.21547 10.4576C3.14714 10.4858 3.07391 10.5002 2.99999 10.5ZM7.4953 8.49375V6.75352C7.44702 6.75117 7.39874 6.75 7.34999 6.75H6.95858C6.89014 6.78125 6.82061 6.81086 6.74999 6.83883V8.48907C6.08905 8.66485 5.62499 9.29766 5.62499 10.0031V10.6875C5.62531 10.7869 5.66491 10.8821 5.73514 10.9523L5.97655 11.1938C6.0117 11.2288 6.05932 11.2485 6.10897 11.2485C6.15862 11.2485 6.20624 11.2288 6.24139 11.1938L6.50624 10.9289C6.5413 10.8938 6.56099 10.8461 6.56099 10.7965C6.56099 10.7468 6.5413 10.6992 6.50624 10.6641L6.37264 10.5305V9.9375C6.37301 9.82836 6.39708 9.7206 6.4432 9.62168C6.48932 9.52276 6.55639 9.43505 6.63976 9.36461C6.72313 9.29417 6.82081 9.24268 6.92604 9.21372C7.03127 9.18476 7.14153 9.17901 7.24921 9.19688C7.61717 9.25781 7.87264 9.60469 7.87264 9.97735V10.5305L7.73905 10.6641C7.70399 10.6992 7.68429 10.7468 7.68429 10.7965C7.68429 10.8461 7.70399 10.8938 7.73905 10.9289L8.00389 11.1938C8.03904 11.2288 8.08667 11.2485 8.13631 11.2485C8.18596 11.2485 8.23359 11.2288 8.26874 11.1938L8.51014 10.9523C8.58038 10.8821 8.61998 10.7869 8.6203 10.6875V9.9375C8.61919 9.60623 8.50812 9.2847 8.3045 9.02339C8.10088 8.76209 7.81625 8.57579 7.4953 8.49375Z" fill="white"/>
<path d="M7.49531 6.75352V8.49375C7.81627 8.57579 8.10089 8.76208 8.30451 9.02339C8.50813 9.2847 8.61921 9.60623 8.62031 9.9375V10.6875C8.61999 10.7869 8.58039 10.8821 8.51016 10.9523L8.26875 11.1938C8.2336 11.2288 8.18598 11.2485 8.13633 11.2485C8.08668 11.2485 8.03906 11.2288 8.00391 11.1938L7.73906 10.9289C7.704 10.8938 7.68431 10.8461 7.68431 10.7965C7.68431 10.7468 7.704 10.6992 7.73906 10.6641L7.87266 10.5305V9.97734C7.87266 9.60469 7.61719 9.25781 7.24922 9.19687C7.14155 9.17901 7.03128 9.18476 6.92605 9.21372C6.82082 9.24268 6.72314 9.29416 6.63977 9.3646C6.5564 9.43504 6.48934 9.52276 6.44321 9.62168C6.39709 9.7206 6.37302 9.82836 6.37266 9.9375V10.5305L6.50625 10.6641C6.54132 10.6992 6.56101 10.7468 6.56101 10.7965C6.56101 10.8461 6.54132 10.8938 6.50625 10.9289L6.24141 11.1938C6.20626 11.2288 6.15863 11.2485 6.10898 11.2485C6.05933 11.2485 6.01171 11.2288 5.97656 11.1938L5.73516 10.9523C5.66492 10.8821 5.62532 10.7869 5.625 10.6875V10.0031C5.625 9.29766 6.08906 8.66484 6.75 8.48906V6.83883C6.23698 7.04183 5.68811 7.13863 5.1366 7.12336C4.58508 7.1081 4.04241 6.98108 3.54141 6.75H3.375V8.68594C3.67712 8.77601 3.93673 8.97183 4.10635 9.23758C4.27597 9.50332 4.34426 9.82125 4.29875 10.1332C4.25324 10.4452 4.09695 10.7303 3.85847 10.9365C3.62 11.1427 3.31527 11.2562 3 11.2562C2.68473 11.2562 2.38 11.1427 2.14153 10.9365C1.90305 10.7303 1.74676 10.4452 1.70125 10.1332C1.65574 9.82125 1.72403 9.50332 1.89365 9.23758C2.06327 8.97183 2.32288 8.77601 2.625 8.68594V6.79383C1.89111 6.91821 1.22492 7.29834 0.744461 7.86687C0.264 8.4354 0.000273101 9.15564 0 9.9L0 10.875C0 11.1734 0.118526 11.4595 0.329505 11.6705C0.540483 11.8815 0.826631 12 1.125 12H9.375C9.67337 12 9.95952 11.8815 10.1705 11.6705C10.3815 11.4595 10.5 11.1734 10.5 10.875V9.9C10.4997 9.08982 10.1874 8.31088 9.62787 7.72495C9.06834 7.13901 8.30462 6.79112 7.49531 6.75352ZM2.4375 9.9375C2.4375 10.0488 2.47049 10.1575 2.5323 10.25C2.59411 10.3425 2.68196 10.4146 2.78474 10.4572C2.88752 10.4998 3.00062 10.5109 3.10974 10.4892C3.21885 10.4675 3.31908 10.4139 3.39775 10.3352C3.47641 10.2566 3.52999 10.1564 3.55169 10.0472C3.5734 9.93812 3.56226 9.82502 3.51968 9.72224C3.47711 9.61946 3.40501 9.53161 3.31251 9.4698C3.22001 9.40799 3.11125 9.375 3 9.375C2.92608 9.37481 2.85285 9.38924 2.78452 9.41744C2.71619 9.44564 2.65411 9.48707 2.60184 9.53934C2.54957 9.59161 2.50814 9.65369 2.47994 9.72202C2.45174 9.79035 2.43731 9.86358 2.4375 9.9375Z" fill="white"/>
</g>
<defs>
<clipPath id="clip0_206_1204">
<rect width="10.5" height="12" fill="white"/>
</clipPath>
</defs>
</svg>
