<svg width="12" height="12" viewBox="0 0 12 12" fill="none" xmlns="http://www.w3.org/2000/svg">
<g clip-path="url(#clip0_206_1201)">
<path opacity="0.4" d="M11.4403 8.25H0.56108C0.412512 8.25 0.270009 8.30892 0.164823 8.41384C0.0596383 8.51876 0.000358859 8.66112 -1.3492e-05 8.80969V10.6875C-0.000198395 10.7612 0.0141317 10.8342 0.0421586 10.9023C0.0701855 10.9705 0.11136 11.0324 0.163332 11.0847C0.215304 11.1369 0.277055 11.1784 0.34506 11.2068C0.413064 11.2351 0.48599 11.2498 0.559674 11.25H11.4389C11.5875 11.25 11.73 11.1911 11.8351 11.0862C11.9403 10.9812 11.9996 10.8389 12 10.6903V8.8125C12.0002 8.73882 11.9858 8.66582 11.9578 8.59767C11.9298 8.52953 11.8886 8.46757 11.8366 8.41533C11.7847 8.3631 11.7229 8.32162 11.6549 8.29325C11.5869 8.26488 11.514 8.25018 11.4403 8.25ZM10.875 10.125H1.12499V9.375H10.875V10.125ZM11.4403 4.5H0.56108C0.412512 4.5 0.270009 4.55892 0.164823 4.66384C0.0596383 4.76876 0.000358859 4.91112 -1.3492e-05 5.05969V6.9375C-0.000198395 7.01118 0.0141317 7.08418 0.0421586 7.15233C0.0701855 7.22047 0.11136 7.28243 0.163332 7.33467C0.215304 7.3869 0.277055 7.42838 0.34506 7.45675C0.413064 7.48512 0.48599 7.49982 0.559674 7.5H11.4389C11.5875 7.5 11.73 7.44108 11.8351 7.33616C11.9403 7.23124 11.9996 7.08888 12 6.94031V5.0625C12.0002 4.98882 11.9858 4.91582 11.9578 4.84767C11.9298 4.77953 11.8886 4.71757 11.8366 4.66533C11.7847 4.6131 11.7229 4.57162 11.6549 4.54325C11.5869 4.51488 11.514 4.50018 11.4403 4.5ZM10.875 6.375H1.12499V5.625H10.875V6.375ZM11.4403 0.75H0.56108C0.412512 0.75 0.270009 0.808922 0.164823 0.913843C0.0596383 1.01876 0.000358859 1.16112 -1.3492e-05 1.30969V3.1875C-0.000198395 3.26118 0.0141317 3.33418 0.0421586 3.40233C0.0701855 3.47047 0.11136 3.53243 0.163332 3.58467C0.215304 3.6369 0.277055 3.67838 0.34506 3.70675C0.413064 3.73512 0.48599 3.74982 0.559674 3.75H11.4389C11.5875 3.75 11.73 3.69108 11.8351 3.58616C11.9403 3.48124 11.9996 3.33888 12 3.19031V1.3125C12.0002 1.23882 11.9858 1.16582 11.9578 1.09767C11.9298 1.02953 11.8886 0.967567 11.8366 0.915334C11.7847 0.863101 11.7229 0.821617 11.6549 0.793248C11.5869 0.76488 11.514 0.750184 11.4403 0.75ZM10.875 2.625H1.12499V1.875H10.875V2.625Z" fill="white"/>
<path d="M1.125 1.875V2.625H8.25V1.875H1.125ZM3.75 5.625H1.125V6.375H3.75V5.625ZM1.125 10.125H6.75V9.375H1.125V10.125Z" fill="white"/>
</g>
<defs>
<clipPath id="clip0_206_1201">
<rect width="12" height="12" fill="white"/>
</clipPath>
</defs>
</svg>
