<svg width="12" height="12" viewBox="0 0 12 12" fill="none" xmlns="http://www.w3.org/2000/svg">
<g clip-path="url(#clip0_206_1216)">
<path opacity="0.4" d="M5.8125 0.1875C2.60156 0.1875 0 2.78906 0 6C0 9.21094 2.60156 11.8125 5.8125 11.8125C9.02344 11.8125 11.625 9.21094 11.625 6C11.625 2.78906 9.02344 0.1875 5.8125 0.1875ZM8.70703 6.56953L6.11484 9.24609C6.0769 9.28595 6.03147 9.31795 5.98115 9.34025C5.93084 9.36256 5.87662 9.37473 5.8216 9.37608C5.76658 9.37743 5.71184 9.36793 5.66049 9.34812C5.60914 9.32831 5.5622 9.29858 5.52234 9.26062C5.51742 9.25594 5.5125 9.25102 5.50781 9.24609L2.91797 6.56953C2.16563 5.79141 2.21016 4.50234 3.05156 3.78516C3.78516 3.15937 4.87734 3.27187 5.55 3.96562L5.81484 4.2375L6.07969 3.96562C6.75234 3.27187 7.84453 3.15937 8.57812 3.78516C9.41719 4.50234 9.46172 5.79141 8.70703 6.56953Z" fill="white"/>
<path d="M8.70704 6.56943L6.11485 9.24599C6.0769 9.28585 6.03147 9.31784 5.98116 9.34015C5.93085 9.36245 5.87663 9.37463 5.82161 9.37597C5.76659 9.37732 5.71184 9.36782 5.6605 9.34801C5.60915 9.3282 5.56221 9.29847 5.52235 9.26052C5.51743 9.25583 5.51251 9.25091 5.50782 9.24599L2.91798 6.56943C2.16563 5.7913 2.21016 4.50224 3.05157 3.78505C3.78516 3.15927 4.87735 3.27177 5.55001 3.96552L5.81485 4.23739L6.07969 3.96552C6.75235 3.27177 7.84454 3.15927 8.57813 3.78505C9.4172 4.50224 9.46173 5.7913 8.70704 6.56943Z" fill="white"/>
</g>
<defs>
<clipPath id="clip0_206_1216">
<rect width="11.625" height="12" fill="white"/>
</clipPath>
</defs>
</svg>
